<svg xmlns="http://www.w3.org/2000/svg" xmlns:xlink="http://www.w3.org/1999/xlink" viewBox="0 0 247.86 24.4"><defs><style>.cls-1{fill:none;}.cls-2{fill:#996a6a;}.cls-3{clip-path:url(#clip-path);}.cls-4{fill:#a90533;}</style><clipPath id="clip-path" transform="translate(0 0)"><rect class="cls-1" x="137.71" width="110.15" height="24.4"/></clipPath></defs><g id="Layer_2" data-name="Layer 2"><g id="Layer_1-2" data-name="Layer 1"><path class="cls-2" d="M2.07,4.34H3.26L5.33,10H4L3.54,8.75H1.78L1.34,10H0ZM3.33,7.85l-.67-2L2,7.85Z" transform="translate(0 0)"/><path class="cls-2" d="M12.83,6s-.07-.07-.17-.12a2.85,2.85,0,0,0-.36-.19,4.24,4.24,0,0,0-.47-.17,2.24,2.24,0,0,0-.51-.07c-.47,0-.7.16-.7.47a.36.36,0,0,0,.07.24.74.74,0,0,0,.23.18,2.43,2.43,0,0,0,.37.14l.52.14a7,7,0,0,1,.73.24,2,2,0,0,1,.56.33,1.3,1.3,0,0,1,.35.48,1.86,1.86,0,0,1,0,1.48,1.56,1.56,0,0,1-.48.54,2.09,2.09,0,0,1-.68.29,3.49,3.49,0,0,1-.79.1,4.72,4.72,0,0,1-.64-.05,4.56,4.56,0,0,1-.64-.14,6.32,6.32,0,0,1-.61-.22A4.68,4.68,0,0,1,9,9.38L9.6,8.24l.21.15a3.4,3.4,0,0,0,.43.22,4.38,4.38,0,0,0,.58.2,2.43,2.43,0,0,0,.65.09c.47,0,.7-.14.7-.42a.37.37,0,0,0-.11-.27A.85.85,0,0,0,11.78,8a3.16,3.16,0,0,0-.44-.16l-.55-.16a5.13,5.13,0,0,1-.68-.26,1.69,1.69,0,0,1-.47-.32,1.18,1.18,0,0,1-.28-.43,1.37,1.37,0,0,1-.1-.56,1.8,1.8,0,0,1,.17-.79,1.74,1.74,0,0,1,.46-.58,1.88,1.88,0,0,1,.67-.36,2.63,2.63,0,0,1,.8-.12,2.78,2.78,0,0,1,.58.06c.2,0,.38.09.56.14l.49.2.42.23Z" transform="translate(0 0)"/><path class="cls-2" d="M15.3,10V4.34h2.43a1.72,1.72,0,0,1,.75.17,1.94,1.94,0,0,1,.58.44,2.07,2.07,0,0,1,.38.62,1.67,1.67,0,0,1,.14.69,2,2,0,0,1-.13.72,2,2,0,0,1-.37.62,1.71,1.71,0,0,1-1.31.59H16.62V10Zm1.32-3h1.07a.52.52,0,0,0,.4-.2.92.92,0,0,0,.17-.59.86.86,0,0,0-.06-.34.57.57,0,0,0-.14-.24.46.46,0,0,0-.2-.14.59.59,0,0,0-.22,0h-1Z" transform="translate(0 0)"/><path class="cls-2" d="M22.43,4.34h1.19L25.69,10H24.34L23.9,8.75H22.14L21.7,10H20.36Zm1.26,3.51-.67-2-.68,2Z" transform="translate(0 0)"/><path class="cls-2" d="M26.67,7.13a3.06,3.06,0,0,1,.19-1,2.81,2.81,0,0,1,1.46-1.55,3,3,0,0,1,2.59.09,2.21,2.21,0,0,1,.87.9l-1,.7a1.27,1.27,0,0,0-.25-.37,1.41,1.41,0,0,0-.32-.24,1.74,1.74,0,0,0-.36-.13l-.36,0a1.4,1.4,0,0,0-.66.15,1.45,1.45,0,0,0-.46.39,1.35,1.35,0,0,0-.27.55,2.1,2.1,0,0,0-.09.61,2,2,0,0,0,.1.65,1.72,1.72,0,0,0,.3.55,1.43,1.43,0,0,0,.47.38,1.29,1.29,0,0,0,.62.14,1.61,1.61,0,0,0,.37,0,1.78,1.78,0,0,0,.36-.14,1.18,1.18,0,0,0,.31-.24,1.13,1.13,0,0,0,.24-.36l1.07.63a1.74,1.74,0,0,1-.38.56,2.46,2.46,0,0,1-.58.42,3.23,3.23,0,0,1-.7.25,3,3,0,0,1-.72.09,2.5,2.5,0,0,1-1.13-.25,3.06,3.06,0,0,1-1.67-2.69Z" transform="translate(0 0)"/><path class="cls-2" d="M37.46,8.87V10h-4V4.34h3.92V5.49h-2.6V6.6H37V7.66H34.78V8.87Z" transform="translate(0 0)"/><path class="cls-2" d="M44.53,10.07a2.55,2.55,0,0,1-1.15-.25,2.66,2.66,0,0,1-.89-.65,2.84,2.84,0,0,1-.57-.92,2.88,2.88,0,0,1,0-2.16,2.77,2.77,0,0,1,.6-.91,2.83,2.83,0,0,1,2-.87,2.55,2.55,0,0,1,1.15.25,2.66,2.66,0,0,1,.89.65,2.88,2.88,0,0,1,.57.93,3,3,0,0,1,.2,1.06,2.87,2.87,0,0,1-.8,2,2.78,2.78,0,0,1-.9.64A2.63,2.63,0,0,1,44.53,10.07ZM43.05,7.19a2.3,2.3,0,0,0,.09.64,1.76,1.76,0,0,0,.29.54,1.38,1.38,0,0,0,.47.39,1.44,1.44,0,0,0,.64.14,1.36,1.36,0,0,0,.65-.15,1.39,1.39,0,0,0,.47-.4,1.66,1.66,0,0,0,.27-.55A2.18,2.18,0,0,0,46,7.17a2.23,2.23,0,0,0-.09-.63A1.7,1.7,0,0,0,45.64,6a1.43,1.43,0,0,0-.47-.37,1.27,1.27,0,0,0-.63-.14,1.37,1.37,0,0,0-.66.15,1.3,1.3,0,0,0-.46.38,1.59,1.59,0,0,0-.28.55A2.28,2.28,0,0,0,43.05,7.19Z" transform="translate(0 0)"/><path class="cls-2" d="M49.08,10V4.34h3.86V5.49H50.39V6.72h2.1V7.78h-2.1V10Z" transform="translate(0 0)"/><path class="cls-2" d="M61.34,5.49H59.62V10H58.3V5.49H56.57V4.34h4.77Z" transform="translate(0 0)"/><path class="cls-2" d="M67.83,4.34V10H66.52V7.69H64.26V10H62.94V4.34h1.32v2.2h2.26V4.34Z" transform="translate(0 0)"/><path class="cls-2" d="M73.87,8.87V10h-4V4.34H73.8V5.49H71.19V6.6h2.24V7.66H71.19V8.87Z" transform="translate(0 0)"/><path class="cls-2" d="M75.63,10V4.34h1.31V10Z" transform="translate(0 0)"/><path class="cls-2" d="M79,10V4.34h2.56a1.68,1.68,0,0,1,.74.17,2,2,0,0,1,.59.44,2.32,2.32,0,0,1,.39.62,1.85,1.85,0,0,1,.14.69,1.7,1.7,0,0,1-.07.51,1.83,1.83,0,0,1-.18.46,2.19,2.19,0,0,1-.29.39,2.19,2.19,0,0,1-.39.29L83.73,10H82.25L81.16,8.19H80.3V10Zm1.31-3h1.2a.5.5,0,0,0,.4-.22.88.88,0,0,0,.17-.57.79.79,0,0,0-.19-.56.57.57,0,0,0-.42-.21H80.3Z" transform="translate(0 0)"/><path class="cls-2" d="M90.62,10.07a2.58,2.58,0,0,1-1.15-.25,2.77,2.77,0,0,1-.89-.65A3.23,3.23,0,0,1,88,8.25a3.08,3.08,0,0,1-.2-1.08,2.87,2.87,0,0,1,.8-2,2.61,2.61,0,0,1,.9-.63,2.71,2.71,0,0,1,1.14-.24,2.58,2.58,0,0,1,1.15.25,2.77,2.77,0,0,1,.89.65,3,3,0,0,1,.56.93,2.81,2.81,0,0,1,.2,1.06,2.88,2.88,0,0,1-.21,1.08,2.95,2.95,0,0,1-1.48,1.55A2.71,2.71,0,0,1,90.62,10.07ZM89.14,7.19a2,2,0,0,0,.1.64,1.73,1.73,0,0,0,.28.54,1.49,1.49,0,0,0,.47.39,1.47,1.47,0,0,0,.64.14,1.4,1.4,0,0,0,.66-.15,1.36,1.36,0,0,0,.46-.4A1.68,1.68,0,0,0,92,7.8a2.18,2.18,0,0,0,.09-.63,1.93,1.93,0,0,0-.1-.63A1.53,1.53,0,0,0,91.73,6a1.39,1.39,0,0,0-.46-.37A1.45,1.45,0,0,0,89.51,6a2,2,0,0,0-.28.55A2.28,2.28,0,0,0,89.14,7.19Z" transform="translate(0 0)"/><path class="cls-2" d="M96.85,4.35h1.21l.58,1.82.57-1.82h1.22L99.48,7l.57,1.53,1.43-4.18h1.43L100.64,10h-1.1l-.9-2.22L97.74,10h-1.1L94.38,4.34H95.8l1.43,4.18L97.79,7Z" transform="translate(0 0)"/><path class="cls-2" d="M105.68,6.77V10h-1.31V4.34h1L108,7.68V4.34h1.31V10h-1Z" transform="translate(0 0)"/><path class="cls-2" d="M33.81,20V14.34h1.31V20Z" transform="translate(0 0)"/><path class="cls-2" d="M40.58,16a.57.57,0,0,0-.17-.12l-.36-.19c-.15-.06-.3-.12-.47-.17a2.4,2.4,0,0,0-.52-.07c-.47,0-.7.16-.7.47a.32.32,0,0,0,.08.24.69.69,0,0,0,.22.18,2.93,2.93,0,0,0,.37.14l.52.14c.27.07.52.16.74.24a2,2,0,0,1,.55.33,1.32,1.32,0,0,1,.36.48,1.92,1.92,0,0,1-.06,1.48,1.56,1.56,0,0,1-.48.54A2,2,0,0,1,40,20a3.42,3.42,0,0,1-.79.1,4.72,4.72,0,0,1-.64-.05,4.56,4.56,0,0,1-.64-.14,5.31,5.31,0,0,1-.6-.22,3.45,3.45,0,0,1-.54-.3l.57-1.14.21.15a3,3,0,0,0,.44.22,3.56,3.56,0,0,0,.58.2,2.37,2.37,0,0,0,.65.09q.69,0,.69-.42a.36.36,0,0,0-.1-.27.9.9,0,0,0-.29-.18,2.75,2.75,0,0,0-.44-.16l-.54-.16a4.64,4.64,0,0,1-.68-.26,1.61,1.61,0,0,1-.48-.32,1.18,1.18,0,0,1-.28-.43,1.57,1.57,0,0,1-.09-.56,1.67,1.67,0,0,1,.17-.79,1.71,1.71,0,0,1,.45-.58,2,2,0,0,1,.67-.36,2.63,2.63,0,0,1,.8-.12,2.88,2.88,0,0,1,.59.06l.55.14a4.53,4.53,0,0,1,.49.2l.42.23Z" transform="translate(0 0)"/><path class="cls-2" d="M47.17,14.34h1.18L50.42,20H49.08l-.44-1.27H46.87L46.44,20H45.1Zm1.25,3.51-.66-2-.68,2Z" transform="translate(0 0)"/><path class="cls-2" d="M54.52,20V14.34h2.42a1.69,1.69,0,0,1,.75.17,2,2,0,0,1,.59.44,2.07,2.07,0,0,1,.38.62,1.85,1.85,0,0,1,.14.69,2,2,0,0,1-.13.72,2,2,0,0,1-.37.62,1.86,1.86,0,0,1-.57.43,1.68,1.68,0,0,1-.75.16H55.83V20Zm1.31-3H56.9a.51.51,0,0,0,.4-.2.87.87,0,0,0,.17-.59,1.11,1.11,0,0,0,0-.34.69.69,0,0,0-.14-.24.52.52,0,0,0-.2-.14.63.63,0,0,0-.22,0h-1Z" transform="translate(0 0)"/><path class="cls-2" d="M60.46,20V14.34H63a1.64,1.64,0,0,1,.74.17,1.86,1.86,0,0,1,.59.44,1.91,1.91,0,0,1,.39.62,1.85,1.85,0,0,1,.14.69,2.1,2.1,0,0,1-.06.51,2.34,2.34,0,0,1-.19.46,2.19,2.19,0,0,1-.29.39,1.88,1.88,0,0,1-.39.29L65.2,20H63.72l-1.09-1.83h-.85V20Zm1.32-3H63a.53.53,0,0,0,.4-.22.94.94,0,0,0,.16-.57.79.79,0,0,0-.19-.56.57.57,0,0,0-.41-.21H61.78Z" transform="translate(0 0)"/><path class="cls-2" d="M69.27,20.07a2.58,2.58,0,0,1-1.15-.25,2.77,2.77,0,0,1-.89-.65,3.23,3.23,0,0,1-.57-.92,2.95,2.95,0,0,1,0-2.16,2.91,2.91,0,0,1,.59-.91,2.61,2.61,0,0,1,.9-.63,2.68,2.68,0,0,1,1.14-.24,2.58,2.58,0,0,1,1.15.25,2.88,2.88,0,0,1,.89.65,3,3,0,0,1,.56.93,2.81,2.81,0,0,1,.2,1.06,2.87,2.87,0,0,1-.8,2,2.85,2.85,0,0,1-.89.64A2.71,2.71,0,0,1,69.27,20.07Zm-1.48-2.88a2,2,0,0,0,.1.64,1.73,1.73,0,0,0,.28.54,1.49,1.49,0,0,0,.47.39,1.47,1.47,0,0,0,.64.14,1.4,1.4,0,0,0,.66-.15,1.36,1.36,0,0,0,.46-.4,1.9,1.9,0,0,0,.28-.55,2.18,2.18,0,0,0,.09-.63,1.93,1.93,0,0,0-.1-.63,1.53,1.53,0,0,0-.29-.55,1.39,1.39,0,0,0-.46-.37,1.45,1.45,0,0,0-1.76.39,1.79,1.79,0,0,0-.28.55A2.28,2.28,0,0,0,67.79,17.19Z" transform="translate(0 0)"/><path class="cls-2" d="M73.32,18.69a1.85,1.85,0,0,0,.34.16,1.8,1.8,0,0,0,.6.09,1,1,0,0,0,.48-.1.75.75,0,0,0,.27-.31,1.66,1.66,0,0,0,.12-.53c0-.21,0-.47,0-.77V14.34h1.31v2.89a8.61,8.61,0,0,1-.07,1.18,2.27,2.27,0,0,1-.29.91,1.53,1.53,0,0,1-.67.58,2.77,2.77,0,0,1-1.18.21A2.15,2.15,0,0,1,73,19.76Z" transform="translate(0 0)"/><path class="cls-2" d="M82.45,18.87V20h-4V14.34h3.92v1.15H79.77V16.6H82v1.06H79.77v1.21Z" transform="translate(0 0)"/><path class="cls-2" d="M83.76,17.13a2.83,2.83,0,0,1,.19-1,2.81,2.81,0,0,1,1.46-1.55,3,3,0,0,1,2.59.09,2.21,2.21,0,0,1,.87.9l-1,.7a1.08,1.08,0,0,0-.24-.37,1.41,1.41,0,0,0-.32-.24,1.74,1.74,0,0,0-.36-.13l-.36,0a1.37,1.37,0,0,0-.66.15,1.35,1.35,0,0,0-.46.39,1.51,1.51,0,0,0-.28.55,2.09,2.09,0,0,0-.08.61,2,2,0,0,0,.1.65,1.72,1.72,0,0,0,.3.55,1.43,1.43,0,0,0,.47.38,1.29,1.29,0,0,0,.62.14,1.61,1.61,0,0,0,.37,0,1.78,1.78,0,0,0,.36-.14,1.18,1.18,0,0,0,.31-.24,1.11,1.11,0,0,0,.23-.36l1.08.63a1.91,1.91,0,0,1-.38.56,2.68,2.68,0,0,1-.58.42,3.43,3.43,0,0,1-.7.25,3.08,3.08,0,0,1-.72.09,2.5,2.5,0,0,1-1.13-.25,2.82,2.82,0,0,1-.89-.67,3,3,0,0,1-.78-2Z" transform="translate(0 0)"/><path class="cls-2" d="M94.82,15.49H93.1V20H91.78V15.49H90.05V14.34h4.77Z" transform="translate(0 0)"/><path class="cls-2" d="M101.51,20.07a2.58,2.58,0,0,1-1.15-.25,2.77,2.77,0,0,1-.89-.65,3.23,3.23,0,0,1-.57-.92,2.9,2.9,0,0,1,.6-3.07,2.61,2.61,0,0,1,.9-.63,2.68,2.68,0,0,1,1.14-.24,2.58,2.58,0,0,1,1.15.25,2.88,2.88,0,0,1,.89.65,3,3,0,0,1,.56.93,2.81,2.81,0,0,1,.2,1.06,2.87,2.87,0,0,1-.8,2,2.85,2.85,0,0,1-.89.64A2.71,2.71,0,0,1,101.51,20.07ZM100,17.19a2,2,0,0,0,.1.64,1.73,1.73,0,0,0,.28.54,1.49,1.49,0,0,0,.47.39,1.47,1.47,0,0,0,.64.14,1.33,1.33,0,0,0,.65-.15,1.31,1.31,0,0,0,.47-.4,1.9,1.9,0,0,0,.28-.55,2.18,2.18,0,0,0,.09-.63,1.93,1.93,0,0,0-.1-.63,1.53,1.53,0,0,0-.29-.55,1.33,1.33,0,0,0-.47-.37,1.27,1.27,0,0,0-.63-.14,1.42,1.42,0,0,0-1.12.53,1.79,1.79,0,0,0-.28.55A2.28,2.28,0,0,0,100,17.19Z" transform="translate(0 0)"/><path class="cls-2" d="M106.06,20V14.34h3.86v1.15h-2.54v1.23h2.09v1.06h-2.09V20Z" transform="translate(0 0)"/><path class="cls-2" d="M124,24.4V0h1.31V24.4Z" transform="translate(0 0)"/><g id="EMA_Logo_-_RGB_-_Red_Black" data-name="EMA Logo - RGB - Red Black"><g class="cls-3"><polygon points="166.18 0.26 166.18 7.04 171.18 7.04 171.18 5.57 168.01 5.57 168.01 4.31 170.16 4.31 170.16 2.88 168.01 2.88 168.01 1.78 171.02 1.78 171.02 0.26 166.18 0.26"/><g class="cls-3"><path d="M171.89,5.55l1.36-.85a2.08,2.08,0,0,0,1.78,1c.56,0,1-.16,1-.58s-.54-.6-1.21-.77c-1.11-.28-2.59-.56-2.59-2.11,0-1.38,1-2.14,2.59-2.14a3.48,3.48,0,0,1,2.84,1.33l-1.23,1a2.3,2.3,0,0,0-1.62-.86c-.52,0-.79.18-.79.5s.53.61,1.2.78c1.11.26,2.6.6,2.6,2.13,0,1.08-.76,2.15-2.85,2.15a3.35,3.35,0,0,1-3.06-1.62" transform="translate(0 0)"/><polygon points="179.05 7.04 179.05 0.26 180.88 0.26 180.88 2.71 182.75 0.26 184.88 0.26 182.6 2.94 185.08 7.04 183.01 7.04 181.41 4.33 180.88 4.93 180.88 7.04 179.05 7.04"/><polygon points="186.1 7.04 186.1 0.26 190.95 0.26 190.95 1.78 187.94 1.78 187.94 2.88 190.09 2.88 190.09 4.31 187.94 4.31 187.94 5.57 191.1 5.57 191.1 7.04 186.1 7.04"/><polygon points="192.3 7.04 192.3 0.26 194.1 0.26 196.59 4.06 196.61 4.06 196.61 0.26 198.29 0.26 198.29 7.04 196.59 7.04 193.99 3.25 193.97 3.25 193.97 7.04 192.3 7.04"/><path d="M199.29,7l2.4-6.81h1.71L205.8,7H204l-.41-1.26H201.4L201,7Zm2.54-2.56h1.29l-.62-1.89h0Z" transform="translate(0 0)"/><polygon points="206.4 7.04 206.4 5.79 209.72 1.78 206.62 1.78 206.62 0.26 212.05 0.26 212.05 1.56 208.82 5.57 212.05 5.57 212.05 7.04 206.4 7.04"/><rect x="213.33" y="0.26" width="1.84" height="6.79"/><path d="M166.18,17V10.21h2.43l1.19,4.61h0l1.07-4.61h2.49V17h-1.76V12.8h0a12.46,12.46,0,0,1-.37,1.65L170.52,17h-1.61l-.7-2.55a12.61,12.61,0,0,1-.38-1.74h0V17Z" transform="translate(0 0)"/><path d="M174.78,14.27V10.21h1.84v4c0,.94.3,1.36,1,1.36s1-.42,1-1.36v-4h1.8v4.06a2.85,2.85,0,0,1-5.7,0" transform="translate(0 0)"/><path d="M181.41,15.5l1.35-.84a2.12,2.12,0,0,0,1.78,1c.56,0,1-.17,1-.59s-.54-.6-1.21-.76c-1.11-.29-2.58-.57-2.58-2.11s1-2.15,2.58-2.15a3.5,3.5,0,0,1,2.85,1.33l-1.23,1a2.33,2.33,0,0,0-1.63-.85c-.52,0-.78.17-.78.49s.53.62,1.2.78c1.11.27,2.59.61,2.59,2.13,0,1.08-.76,2.16-2.85,2.16a3.33,3.33,0,0,1-3.05-1.63" transform="translate(0 0)"/><polygon points="188.57 17 188.57 10.21 193.42 10.21 193.42 11.73 190.41 11.73 190.41 12.83 192.55 12.83 192.55 14.27 190.41 14.27 190.41 15.52 193.57 15.52 193.57 17 188.57 17"/><path d="M194.54,14.27V10.21h1.83v4c0,.94.3,1.36,1,1.36s1-.42,1-1.36v-4h1.8v4.06a2.85,2.85,0,0,1-5.69,0" transform="translate(0 0)"/><path d="M201.64,17V10.21h2.43l1.19,4.61h0l1.07-4.61h2.49V17h-1.75V12.8h0a12.46,12.46,0,0,1-.37,1.65L206,17h-1.62l-.7-2.55a14.3,14.3,0,0,1-.38-1.74h0V17Z" transform="translate(0 0)"/><path d="M213,13.6a3.34,3.34,0,1,1,6.67,0,3.34,3.34,0,1,1-6.67,0m4.83,0c0-1.24-.54-2-1.49-2s-1.51.76-1.51,2,.55,2.06,1.51,2.06,1.49-.81,1.49-2.06" transform="translate(0 0)"/><polygon points="220.84 17 220.84 10.21 225.53 10.21 225.53 11.73 222.68 11.73 222.68 13.09 224.66 13.09 224.66 14.52 222.68 14.52 222.68 17 220.84 17"/><path d="M228.39,17l2.4-6.82h1.71L234.9,17h-1.85l-.41-1.27H230.5L230.06,17Zm2.54-2.57h1.3l-.63-1.88h0Z" transform="translate(0 0)"/><path d="M235.91,17V10.21h2.65c1.74,0,2.8.58,2.8,2.21a1.85,1.85,0,0,1-1.34,2l1.44,2.6h-1.94l-1.31-2.36h-.51V17Zm1.79-3.75h.79c.75,0,1.09-.21,1.09-.78s-.34-.77-1.09-.77h-.79Z" transform="translate(0 0)"/><polygon points="244.07 17 244.07 11.73 242.12 11.73 242.12 10.21 247.86 10.21 247.86 11.73 245.91 11.73 245.91 17 244.07 17"/><rect x="166.06" y="20.71" width="0.35" height="3.63"/><polygon points="168.36 20.71 168.74 20.71 170.74 23.7 170.75 23.7 170.75 20.71 171.07 20.71 171.07 24.34 170.76 24.34 168.7 21.25 168.69 21.25 168.69 24.34 168.36 24.34 168.36 20.71"/><path d="M173,20.71h.92a1.61,1.61,0,0,1,1.8,1.81,1.62,1.62,0,0,1-1.8,1.81H173ZM174,24c.9,0,1.4-.45,1.4-1.5S174.84,21,173.94,21h-.61v3Z" transform="translate(0 0)"/><rect x="177.48" y="20.71" width="0.35" height="3.63"/><path d="M180.78,20.69h.38l1.28,3.64h-.36l-.39-1.11h-1.47l-.38,1.11h-.34Zm.81,2.22-.62-1.8h0l-.63,1.8Z" transform="translate(0 0)"/><polygon points="184.06 20.71 184.44 20.71 186.44 23.7 186.45 23.7 186.45 20.71 186.77 20.71 186.77 24.34 186.47 24.34 184.4 21.25 184.39 21.25 184.39 24.34 184.06 24.34 184.06 20.71"/><path d="M189.67,20.69h.38l1.28,3.64H191l-.39-1.11h-1.47l-.38,1.11h-.34Zm.81,2.22-.63-1.8h0l-.62,1.8Z" transform="translate(0 0)"/><path d="M194.85,23.11v-2.4h.35v2.34a.93.93,0,0,0,1,1,.91.91,0,0,0,1-1V20.71h.34V23.1a1.22,1.22,0,0,1-1.32,1.3,1.21,1.21,0,0,1-1.32-1.29" transform="translate(0 0)"/><polygon points="199.36 20.71 199.74 20.71 201.73 23.7 201.74 23.7 201.74 20.71 202.07 20.71 202.07 24.34 201.76 24.34 199.7 21.25 199.69 21.25 199.69 24.34 199.36 24.34 199.36 20.71"/><rect x="204.04" y="20.71" width="0.35" height="3.63"/><polygon points="206.06 20.71 206.42 20.71 207.5 23.87 207.51 23.87 208.6 20.71 208.94 20.71 207.66 24.35 207.34 24.35 206.06 20.71"/><polygon points="210.55 20.71 212.72 20.71 212.72 21.03 210.9 21.03 210.9 22.26 212.26 22.26 212.26 22.58 210.9 22.58 210.9 24.02 212.82 24.02 212.82 24.34 210.55 24.34 210.55 20.71"/><path d="M214.49,20.71h1.22c.8,0,1.26.34,1.26,1a.94.94,0,0,1-.87,1l.91,1.67h-.39l-.88-1.63h-.91v1.63h-.34Zm1.19,1.69c.6,0,.94-.17.94-.7s-.34-.67-.94-.67h-.85V22.4Z" transform="translate(0 0)"/><path d="M218.52,23.44l.31-.11a1,1,0,0,0,1,.76c.54,0,.9-.25.9-.65s-.19-.57-1-.82-1.17-.45-1.17-1.05a1,1,0,0,1,1.13-.93,1.21,1.21,0,0,1,1.24.83l-.29.14a.94.94,0,0,0-1-.66c-.48,0-.78.26-.78.6s.24.54,1,.79,1.12.49,1.12,1.07-.53,1-1.26,1a1.3,1.3,0,0,1-1.33-1" transform="translate(0 0)"/><rect x="222.92" y="20.71" width="0.35" height="3.63"/><polygon points="226.1 21.03 224.93 21.03 224.93 20.71 227.62 20.71 227.62 21.03 226.44 21.03 226.44 24.34 226.1 24.34 226.1 21.03"/><polygon points="230.1 22.74 228.88 20.71 229.26 20.71 230.28 22.44 231.29 20.71 231.67 20.71 230.45 22.74 230.45 24.34 230.1 24.34 230.1 22.74"/><polygon class="cls-4" points="137.71 24.3 162.09 24.3 162.09 0 137.71 24.3"/></g></g></g></g></g></svg>