<svg xmlns="http://www.w3.org/2000/svg" viewBox="0 0 125 66.93"><defs><style>.cls-1,.cls-3{stroke:#231f20;stroke-miterlimit:10;stroke-width:0.4px;}.cls-2,.cls-3{fill:#231f20;}</style></defs><title>MINI</title><g id="Layer_2" data-name="Layer 2"><g id="Layer_1-2" data-name="Layer 1"><path class="cls-1" d="M45.8,47.38a4.53,4.53,0,0,0,1.33-1.17,2.89,2.89,0,0,0,.56-1.78,1.69,1.69,0,0,0-.3-1,1,1,0,0,0-.86-.45,2.34,2.34,0,0,0-1.76.93,7.11,7.11,0,0,0-1.26,2.3,9.08,9.08,0,0,0-.46,2.93,3.24,3.24,0,0,0,.34,1.54,1.47,1.47,0,0,0,.49.53,1.51,1.51,0,0,0,.87.2A3.21,3.21,0,0,0,46.16,51c.59-.3.87-.57.87-.85a.36.36,0,0,0-.39-.41.81.81,0,0,0-.38.13l-.68.36a1.94,1.94,0,0,1-.85.23c-.17,0-.67,0-.67-1.19l0-1A13.63,13.63,0,0,0,45.8,47.38Zm-1.48-.48a6.83,6.83,0,0,1,1-2.15c.39-.51.73-.78,1-.78s.39.06.39.49a2.07,2.07,0,0,1-.37,1.26,3.06,3.06,0,0,1-1.06.89l-.62.31-.4.21C44.27,47.06,44.3,47,44.32,46.9Z"/><polygon class="cls-2" points="125 0 125 20.54 122.55 20.54 122.55 2.44 104.36 2.44 104.36 0 125 0"/><polygon class="cls-2" points="0 66.93 0 46.4 2.45 46.4 2.45 64.49 20.64 64.49 20.64 66.93 0 66.93"/><path class="cls-2" d="M101.57,18.57a4.34,4.34,0,0,1,3,1.11A4.48,4.48,0,0,1,106,22.54H97.1a4.33,4.33,0,0,1,4.47-4Zm6.88,5a7.73,7.73,0,0,0-.88-3.71,6.32,6.32,0,0,0-2.45-2.52,7,7,0,0,0-3.55-.9,7.17,7.17,0,0,0-3.59.9,6.42,6.42,0,0,0-2.49,2.52,7.68,7.68,0,0,0,0,7.29,6.42,6.42,0,0,0,2.64,2.52,8.26,8.26,0,0,0,3.91.9A8.06,8.06,0,0,0,105.2,30a6,6,0,0,0,2.35-1.67l-1.39-1.62a5.15,5.15,0,0,1-4,1.68,5.28,5.28,0,0,1-3.42-1.11,4.35,4.35,0,0,1-1.62-2.94h11.29a6.43,6.43,0,0,0,.06-.76Zm-20.85,7A7.24,7.24,0,0,0,91,29.82a5.45,5.45,0,0,0,2.3-2.21l-1.92-1.2a4.29,4.29,0,0,1-1.63,1.49,4.63,4.63,0,0,1-2.15.5,4.93,4.93,0,0,1-2.46-.61,4.3,4.3,0,0,1-1.7-1.71,5.6,5.6,0,0,1,0-5.12,4.3,4.3,0,0,1,1.7-1.71,5,5,0,0,1,2.46-.6,4.63,4.63,0,0,1,2.15.5,4.29,4.29,0,0,1,1.63,1.49l1.92-1.23A5.35,5.35,0,0,0,91,17.22a7.24,7.24,0,0,0-3.37-.76,7.87,7.87,0,0,0-3.8.9,6.63,6.63,0,0,0-2.61,2.51,7.45,7.45,0,0,0,0,7.28,6.68,6.68,0,0,0,2.61,2.53,7.77,7.77,0,0,0,3.8.91ZM70.89,28.66a3.75,3.75,0,0,1-2.26-.6,1.94,1.94,0,0,1-.81-1.65c0-1.43,1.07-2.14,3.2-2.14h3.89V26.2A3.69,3.69,0,0,1,73.39,28a4.79,4.79,0,0,1-2.5.64Zm.58-12.2a11,11,0,0,0-3.18.45,7.71,7.71,0,0,0-2.57,1.32l1,1.88a6.31,6.31,0,0,1,2-1.08,7.44,7.44,0,0,1,2.42-.4,4,4,0,0,1,2.78.86,3.18,3.18,0,0,1,1,2.48v.5h-4a6.65,6.65,0,0,0-4.26,1.11,3.84,3.84,0,0,0,.07,5.89,5.79,5.79,0,0,0,3.74,1.12,6.88,6.88,0,0,0,2.77-.51A4,4,0,0,0,75,28.6v1.83h2.39V22.07a5.4,5.4,0,0,0-1.54-4.2,6.31,6.31,0,0,0-4.42-1.41ZM56.21,28.4a4.73,4.73,0,0,1-2.39-.62,4.28,4.28,0,0,1-1.68-1.72,5.28,5.28,0,0,1-.6-2.55A5.07,5.07,0,0,1,52.15,21a4.45,4.45,0,0,1,1.68-1.71,4.67,4.67,0,0,1,2.38-.62,4.8,4.8,0,0,1,2.4.6A4.32,4.32,0,0,1,60.29,21a5.07,5.07,0,0,1,.62,2.55,5.07,5.07,0,0,1-.62,2.55,4.41,4.41,0,0,1-1.68,1.72,4.71,4.71,0,0,1-2.4.62Zm.21-11.94a6.66,6.66,0,0,0-2.84.59,5.4,5.4,0,0,0-2.12,1.73V16.59H49V35.5h2.52V28.34A5.65,5.65,0,0,0,53.68,30a6.35,6.35,0,0,0,2.74.58A7.33,7.33,0,0,0,60,29.7a6.33,6.33,0,0,0,2.51-2.49,7.35,7.35,0,0,0,.91-3.7,7.25,7.25,0,0,0-.91-3.68A6.37,6.37,0,0,0,60,17.35a7.22,7.22,0,0,0-3.62-.89ZM40.32,30.59a7.64,7.64,0,0,0,4.4-1.11,3.46,3.46,0,0,0,1.62-3,3.11,3.11,0,0,0-.74-2.2,4.1,4.1,0,0,0-1.77-1.11,22.54,22.54,0,0,0-2.72-.61q-1.26-.24-2-.42A2.91,2.91,0,0,1,38,21.58a1.31,1.31,0,0,1-.48-1.07,1.58,1.58,0,0,1,.84-1.39,4.68,4.68,0,0,1,2.45-.52,7.24,7.24,0,0,1,4,1.1l1.08-2a7.42,7.42,0,0,0-2.28-.91,11.58,11.58,0,0,0-2.79-.34,7.16,7.16,0,0,0-4.23,1.13,3.55,3.55,0,0,0-1.57,3,3.16,3.16,0,0,0,.76,2.27A4.2,4.2,0,0,0,37.61,24a17.49,17.49,0,0,0,2.74.6c.82.14,1.46.27,1.9.38a2.86,2.86,0,0,1,1.12.54,1.2,1.2,0,0,1,.45,1c0,1.25-1.11,1.88-3.31,1.88A9.19,9.19,0,0,1,37.86,28a7.74,7.74,0,0,1-2.24-1l-1,2A7.2,7.2,0,0,0,37,30.13a11.55,11.55,0,0,0,3.28.46Z"/><path class="cls-3" d="M27.27,21.23a.27.27,0,0,0-.13,0c0-.12,0-.23,0-.34a.76.76,0,0,0-.87-.67,3.1,3.1,0,0,0-1.9,1.21,11.73,11.73,0,0,0-2,2.84,6.34,6.34,0,0,0-.85,2.79c0,.78.31,1.18.95,1.18a1.47,1.47,0,0,0,.89-.3,10.7,10.7,0,0,0,1.45-1.57,13.57,13.57,0,0,0,1.53-2.28A16.1,16.1,0,0,0,25.86,27a1.37,1.37,0,0,0,.32.86.9.9,0,0,0,.72.4.38.38,0,0,0,.32-.15.51.51,0,0,0,.11-.31.41.41,0,0,0-.15-.32l-.24-.18-.14-.09a17.54,17.54,0,0,1,.25-2.63,19.29,19.29,0,0,1,.44-2.22,6.81,6.81,0,0,0,.2-.71v-.06Q27.69,21.23,27.27,21.23Zm-4.71,6.12c-.09,0-.19,0-.19-.24A5.19,5.19,0,0,1,22.94,25a10.25,10.25,0,0,1,1.45-2.28,5.35,5.35,0,0,1,1.45-1.36.84.84,0,0,1,.38-.14.18.18,0,0,1,.17.1.47.47,0,0,1,.07.25,1.63,1.63,0,0,1,0,.35,11.32,11.32,0,0,1-.75,1.57,12.71,12.71,0,0,1-2.86,3.78A.37.37,0,0,1,22.56,27.35Z"/><path class="cls-3" d="M28.81,40.78c0,.18-.14.34-.39.47l0,0h0l-1.25-.06a2.15,2.15,0,0,0-1.83,1,6.33,6.33,0,0,0-1,2.49h1.87c.45,0,.55.2.55.36,0,.43-.66.45-.88.46H24c-.19.84-.34,1.59-.46,2.23s-.22,1.16-.28,1.44-.12.63-.19,1c0,.13,0,.24-.05.36a3,3,0,0,1-.13.68.45.45,0,0,1-.45.26.39.39,0,0,1-.15,0A.45.45,0,0,1,22,51c.08-.36.14-.71.2-1s.13-.64.2-.91c.11-.6.22-1.21.32-1.83s.2-1.15.32-1.7h-.26l-1,0c-.39,0-.46-.23-.46-.35,0-.45.77-.46,1-.47h1a20.12,20.12,0,0,1,.67-1.93,4.94,4.94,0,0,1,1.33-1.87,3.28,3.28,0,0,1,2.15-.65C28,40.28,28.81,40.33,28.81,40.78Z"/><path class="cls-3" d="M56.69,43.73a.48.48,0,0,1-.19.37.58.58,0,0,1-.71.06.52.52,0,0,0-.25-.07s-.15,0-.46.26c-1,.69-1.75,2.09-2.38,4.16-.17.55-.27.94-.31,1.14s-.06.39-.09.52c-.17.9-.44,1.34-.83,1.34-.1,0-.34,0-.34-.41l.35-1.89c.18-1,.31-1.64.37-2s.15-.84.23-1.32.26-1.18.51-2.06a.2.2,0,0,1,0-.07v-.08a.69.69,0,0,1,.35-.64.55.55,0,0,1,.25-.07c.17,0,.45.08.45.6a3.81,3.81,0,0,1-.23,1c0,.19-.11.37-.15.54.09-.15.2-.33.35-.54a5,5,0,0,1,.87-1,1.78,1.78,0,0,1,1.15-.5,1.22,1.22,0,0,1,.92.33A.49.49,0,0,1,56.69,43.73Z"/><path class="cls-3" d="M49.94,50.49c0,.27-.19.49-.55.67a1.88,1.88,0,0,1-.75.25c-.3,0-.66-.17-.66-1a1.52,1.52,0,0,1,.08-.44,4.48,4.48,0,0,0,.15-.59c.06-.26.13-.61.23-1.06L48.75,47c.1-.47.23-1.05.38-1.73.19-.85.22-1,.22-1.07V44a2.46,2.46,0,0,0-.11-.49v0a.62.62,0,0,1,.16-.43.5.5,0,0,1,.42-.2.47.47,0,0,1,.42.3,1.27,1.27,0,0,1,.14.58,30.22,30.22,0,0,1-.73,3.42c-.62,2.66-.72,3.17-.72,3.24a.06.06,0,0,0,0,0s.07,0,.21-.16a.62.62,0,0,1,.41-.23C49.67,50.05,49.94,50.09,49.94,50.49Z"/><path class="cls-3" d="M42.11,44.74a8.77,8.77,0,0,1-.2,1.57l-.27,1.32a21.13,21.13,0,0,0-.43,2.57l0,.59a.57.57,0,0,1-.17.42.63.63,0,0,1-.44.15.47.47,0,0,1-.43-.21.62.62,0,0,1-.13-.37,1.36,1.36,0,0,1,0-.29L41,45.4a3,3,0,0,0,0-.55c0-.66-.23-.66-.31-.66-.34,0-1,.42-2.15,2.41a13.62,13.62,0,0,0-1,1.92c-.12.36-.24.78-.36,1.24a4.75,4.75,0,0,0-.17.86l0,.27c0,.23-.13.49-.71.49A.36.36,0,0,1,36,51c0-.11.15-1,1.54-7.32.77-3.58,1.25-6,1.46-7.28l.06-.22a.4.4,0,0,1,.4-.32.62.62,0,0,1,.63.49v0c0,.2-.1.47-.18.82l-.24,1.19-.3,1.44c-.11.51-.21,1-.33,1.57l-.51,2.44q-.21,1-.39,1.83c.94-1.7,1.84-2.53,2.71-2.53a1.09,1.09,0,0,1,1,.52A1.91,1.91,0,0,1,42.11,44.74Z"/><path class="cls-3" d="M36.19,43.6a.49.49,0,0,1-.43.48,3.59,3.59,0,0,1-.7,0l-1,0c-.11.53-.32,1.46-.63,2.76a16.15,16.15,0,0,0-.5,2.68,1.37,1.37,0,0,0,.12.73.29.29,0,0,0,.23.07.47.47,0,0,0,.33-.11,2.54,2.54,0,0,0,.29-.28,2.89,2.89,0,0,1,.28-.31.53.53,0,0,1,.39-.18.4.4,0,0,1,.44.44,1.1,1.1,0,0,1-.34.61,4.22,4.22,0,0,1-.62.6,1.49,1.49,0,0,1-.86.22,1.22,1.22,0,0,1-.8-.21,1.57,1.57,0,0,1-.44-1.22,6.26,6.26,0,0,1,.1-1l.14-.89q.15-.67.27-1.17c.08-.32.15-.61.2-.86s.13-.58.23-1,.15-.69.21-1a6.54,6.54,0,0,0-1,.08h0c-.37,0-.43-.26-.43-.39a.63.63,0,0,1,.14-.37.58.58,0,0,1,.39-.21l1.06,0c0-.09,0-.18,0-.28s.07-.38.13-.67a3.84,3.84,0,0,1,.25-.81c.13-.28.3-.43.52-.43a.36.36,0,0,1,.39.41v.1c-.14.61-.26,1.16-.36,1.66h1a1.5,1.5,0,0,1,.8.12A.4.4,0,0,1,36.19,43.6Z"/><path class="cls-3" d="M51.16,41c0,.63-.32.82-.57.87a1.56,1.56,0,0,1-.31,0,.56.56,0,0,1-.4-.19.66.66,0,0,1-.19-.48A.76.76,0,0,1,50,40.7a.89.89,0,0,1,.6-.25A.53.53,0,0,1,51.16,41Z"/><path class="cls-3" d="M19.22,43.08a2.59,2.59,0,0,0-1.91.93A6.49,6.49,0,0,0,16,46.28a8.2,8.2,0,0,0-.5,2.81,3.12,3.12,0,0,0,.41,1.55,1.42,1.42,0,0,0,1.35.76,1.83,1.83,0,0,0,1-.32,4.72,4.72,0,0,0,1.59-2,8.72,8.72,0,0,0,.95-3.72C20.8,43.86,20.28,43.08,19.22,43.08Zm-1.86,7.36a.63.63,0,0,1-.36-.1A1.48,1.48,0,0,1,16.46,49a7.11,7.11,0,0,1,.81-3.18,4,4,0,0,1,1.23-1.53,1.14,1.14,0,0,1,.61-.22.73.73,0,0,1,.38.07.65.65,0,0,1,.2.28,3.48,3.48,0,0,1,.09,1.08,6.69,6.69,0,0,1-.42,2.1,7.6,7.6,0,0,1-1,2.06C18,50.17,17.65,50.44,17.36,50.44Z"/><path class="cls-2" d="M109.48,39.28a7.34,7.34,0,0,0-3,.58,4.94,4.94,0,0,0-2.06,1.64V39.42h-2.41V53.26h2.52V46.13a4.62,4.62,0,0,1,1.18-3.41A4.36,4.36,0,0,1,109,41.53a3.64,3.64,0,0,1,2.78,1,4.23,4.23,0,0,1,1,3v7.68h2.52v-8a6,6,0,0,0-1.57-4.48,5.75,5.75,0,0,0-4.21-1.53Zm-11.74.14L93.59,50.49,89.46,39.42H87.34l-4.21,11-4-11H76.7l5.17,13.84h2.42l4.07-10.5,4,10.5H94.8L100,39.42ZM69,51.22a4.72,4.72,0,0,1-2.41-.61,4.44,4.44,0,0,1-1.68-1.73,5.61,5.61,0,0,1,0-5.09,4.32,4.32,0,0,1,1.68-1.71,5.12,5.12,0,0,1,4.81,0A4.3,4.3,0,0,1,73,43.79a5.7,5.7,0,0,1,0,5.09,4.41,4.41,0,0,1-1.67,1.73,4.71,4.71,0,0,1-2.4.61Zm0,2.2a7.48,7.48,0,0,0,3.71-.92A6.72,6.72,0,0,0,75.26,50a7.61,7.61,0,0,0,0-7.29,6.6,6.6,0,0,0-2.58-2.5A7.47,7.47,0,0,0,69,39.28a7.55,7.55,0,0,0-3.73.91,6.49,6.49,0,0,0-2.59,2.5,7.61,7.61,0,0,0,0,7.29,6.61,6.61,0,0,0,2.59,2.52,7.55,7.55,0,0,0,3.73.92Z"/></g></g></svg>