<svg xmlns="http://www.w3.org/2000/svg" viewBox="0 0 226.43 121.24"><defs><style>.cls-1{fill:#231f20;}</style></defs><title>PRIMARY</title><g id="Layer_2" data-name="Layer 2"><g id="Layer_1-2" data-name="Layer 1"><path d="M83,85.82a8.34,8.34,0,0,0,2.42-2.12,5.27,5.27,0,0,0,1-3.22,3.05,3.05,0,0,0-.54-1.81,1.78,1.78,0,0,0-1.55-.82,4.23,4.23,0,0,0-3.19,1.68,12.59,12.59,0,0,0-2.28,4.17A16.5,16.5,0,0,0,78,89a6,6,0,0,0,.61,2.79,2.63,2.63,0,0,0,.88,1,2.78,2.78,0,0,0,1.58.36,5.72,5.72,0,0,0,2.55-.78c1.08-.54,1.59-1,1.59-1.54a.66.66,0,0,0-.71-.74,1.49,1.49,0,0,0-.69.23L82.56,91a3.44,3.44,0,0,1-1.53.41c-.31,0-1.22,0-1.22-2.15l0-1.9A23.6,23.6,0,0,0,83,85.82ZM80.28,85a12.15,12.15,0,0,1,1.84-3.89c.69-.93,1.31-1.42,1.78-1.42s.71.11.71.89a3.7,3.7,0,0,1-.67,2.28A5.74,5.74,0,0,1,82,84.43c-.37.2-.75.38-1.13.56s-.49.25-.73.38C80.19,85.24,80.24,85.1,80.28,85Z"/><polygon class="cls-1" points="226.43 0 226.43 37.2 221.98 37.2 221.98 4.43 189.03 4.43 189.03 0 226.43 0"/><polygon class="cls-1" points="0 121.24 0 84.04 4.45 84.04 4.45 116.82 37.4 116.82 37.4 121.24 0 121.24"/><path class="cls-1" d="M184,33.65a7.84,7.84,0,0,1,5.49,2,8,8,0,0,1,2.6,5.18H175.89a8,8,0,0,1,2.6-5.21,7.91,7.91,0,0,1,5.49-2Zm12.46,9.08A13.9,13.9,0,0,0,194.85,36a11.57,11.57,0,0,0-4.42-4.57A12.77,12.77,0,0,0,184,29.81a13,13,0,0,0-6.49,1.63A11.75,11.75,0,0,0,173,36a13.2,13.2,0,0,0-1.64,6.58A13.06,13.06,0,0,0,173,49.21a11.67,11.67,0,0,0,4.79,4.57,16.14,16.14,0,0,0,12.77.59,10.92,10.92,0,0,0,4.26-3l-2.52-2.93a9.38,9.38,0,0,1-7.28,3,9.57,9.57,0,0,1-6.21-2,7.88,7.88,0,0,1-2.93-5.33h20.46a13.63,13.63,0,0,0,.09-1.37ZM158.68,55.41A13.07,13.07,0,0,0,164.79,54,10,10,0,0,0,169,50l-3.47-2.18a7.75,7.75,0,0,1-2.95,2.7,8.42,8.42,0,0,1-3.9.9,9.14,9.14,0,0,1-4.45-1.09,7.75,7.75,0,0,1-3.09-3.1,10.17,10.17,0,0,1,0-9.28,7.66,7.66,0,0,1,3.09-3.09,9,9,0,0,1,4.45-1.09,8.42,8.42,0,0,1,3.9.9,7.72,7.72,0,0,1,2.95,2.69L169,35.16a9.8,9.8,0,0,0-4.16-4,13.31,13.31,0,0,0-6.11-1.37,14.36,14.36,0,0,0-6.88,1.63A12,12,0,0,0,147.07,36a13.52,13.52,0,0,0,0,13.2,12.23,12.23,0,0,0,4.73,4.57,14.14,14.14,0,0,0,6.88,1.65Zm-30.27-3.5a6.76,6.76,0,0,1-4.09-1.09,3.5,3.5,0,0,1-1.47-3q0-3.89,5.8-3.88h7v3.5a6.62,6.62,0,0,1-2.76,3.29,8.51,8.51,0,0,1-4.52,1.16Zm1.05-22.1a19.71,19.71,0,0,0-5.76.83A13.88,13.88,0,0,0,119,33L121,36.44a11.23,11.23,0,0,1,3.61-2,13.42,13.42,0,0,1,4.38-.73,7.24,7.24,0,0,1,5,1.56,5.78,5.78,0,0,1,1.71,4.5v.9h-7.23q-5.28,0-7.7,2a7,7,0,0,0,.11,10.67,10.59,10.59,0,0,0,6.78,2,12.57,12.57,0,0,0,5-.92,7.28,7.28,0,0,0,3.26-2.67v3.31h4.33V40q0-5.07-2.78-7.62t-8-2.56ZM101.82,51.44a8.5,8.5,0,0,1-4.33-1.12,7.8,7.8,0,0,1-3-3.12,9.49,9.49,0,0,1-1.1-4.61A9.23,9.23,0,0,1,94.47,38a8,8,0,0,1,3-3.1,8.43,8.43,0,0,1,4.3-1.11,8.62,8.62,0,0,1,4.35,1.09,7.82,7.82,0,0,1,3,3.09,10.07,10.07,0,0,1,0,9.23,8,8,0,0,1-3,3.12,8.44,8.44,0,0,1-4.35,1.12Zm.38-21.63a12.25,12.25,0,0,0-5.14,1.07A9.72,9.72,0,0,0,93.21,34v-4H88.83V64.31H93.4v-13a10.24,10.24,0,0,0,3.83,3,11.8,11.8,0,0,0,5,1,13.27,13.27,0,0,0,6.57-1.61,11.54,11.54,0,0,0,4.54-4.52A13.43,13.43,0,0,0,115,42.59a13.27,13.27,0,0,0-1.64-6.67,11.56,11.56,0,0,0-4.54-4.5,13.38,13.38,0,0,0-6.57-1.61ZM73,55.41a13.87,13.87,0,0,0,8-2A6.27,6.27,0,0,0,83.94,48a5.6,5.6,0,0,0-1.33-4,7.31,7.31,0,0,0-3.21-2,38.42,38.42,0,0,0-4.93-1.12q-2.28-.42-3.54-.75a5.47,5.47,0,0,1-2.12-1A2.4,2.4,0,0,1,68,37.15a2.85,2.85,0,0,1,1.53-2.51,8.44,8.44,0,0,1,4.42-1,13.13,13.13,0,0,1,7.28,2l1.95-3.6A13.74,13.74,0,0,0,79,30.43a21.2,21.2,0,0,0-5-.62,12.83,12.83,0,0,0-7.66,2.06,6.43,6.43,0,0,0-2.86,5.47,5.75,5.75,0,0,0,1.38,4.11,7.59,7.59,0,0,0,3.31,2.08,33.09,33.09,0,0,0,5,1.09c1.49.26,2.64.48,3.45.69a5.07,5.07,0,0,1,2,1,2.2,2.2,0,0,1,.81,1.8q0,3.41-6,3.4a16.53,16.53,0,0,1-4.81-.71,13.62,13.62,0,0,1-4-1.89l-1.9,3.6a12.93,12.93,0,0,0,4.47,2.1,20.9,20.9,0,0,0,5.94.83Z"/><path class="cls-1" d="M49.41,38.46a.45.45,0,0,0-.24,0c0-.22,0-.42-.07-.62a1.39,1.39,0,0,0-1.59-1.21c-.89,0-2.06.72-3.44,2.19A21.47,21.47,0,0,0,40.44,44a11.69,11.69,0,0,0-1.52,5.05c0,1.41.56,2.14,1.71,2.14a2.64,2.64,0,0,0,1.62-.55,19.76,19.76,0,0,0,2.62-2.84,24.85,24.85,0,0,0,2.77-4.13,28.75,28.75,0,0,0-.8,5.29,2.5,2.5,0,0,0,.58,1.56,1.63,1.63,0,0,0,1.31.72.68.68,0,0,0,.58-.27.89.89,0,0,0,.2-.56.73.73,0,0,0-.27-.58,4.5,4.5,0,0,0-.44-.33c-.09-.07-.18-.11-.25-.16A31.59,31.59,0,0,1,49,44.59c.3-1.87.57-3.23.79-4,.36-1.23.36-1.25.36-1.28v-.11A.64.64,0,0,0,49.41,38.46ZM40.86,49.55c-.16,0-.34-.06-.34-.44a9.21,9.21,0,0,1,1-3.85,18.16,18.16,0,0,1,2.62-4.13,10,10,0,0,1,2.62-2.47,1.55,1.55,0,0,1,.69-.25.31.31,0,0,1,.31.18.86.86,0,0,1,.13.45,3.34,3.34,0,0,1-.07.64,21.19,21.19,0,0,1-1.37,2.84,23,23,0,0,1-5.17,6.85A.68.68,0,0,1,40.86,49.55Z"/><path class="cls-1" d="M52.18,73.87c0,.32-.24.61-.69.85l-.06,0h0c-1.61-.09-2.13-.11-2.28-.11a3.91,3.91,0,0,0-3.31,1.87A11.55,11.55,0,0,0,43.91,81l1,0,2.06,0a2.76,2.76,0,0,1,.38,0c.82,0,1,.36,1,.65,0,.78-1.2.82-1.6.83H43.53c-.35,1.52-.62,2.88-.84,4s-.4,2.1-.51,2.6S42,90.29,41.85,91c0,.24-.05.44-.09.65a5,5,0,0,1-.24,1.24.81.81,0,0,1-.81.47.66.66,0,0,1-.28,0,.81.81,0,0,1-.65-.94c.14-.65.25-1.29.36-1.89s.24-1.16.36-1.64c.21-1.09.41-2.2.59-3.32s.36-2.08.58-3.08H41.2l-1.88.06c-.71,0-.82-.42-.82-.64,0-.81,1.39-.83,1.84-.85h1.73a36.6,36.6,0,0,1,1.22-3.5,9.18,9.18,0,0,1,2.41-3.38A5.94,5.94,0,0,1,49.59,73C50.79,73,52.18,73.05,52.18,73.87Z"/><path class="cls-1" d="M102.68,79.21a.86.86,0,0,1-.33.67,1.06,1.06,0,0,1-1.29.11,1,1,0,0,0-.45-.13c-.06,0-.28.06-.84.47-1.73,1.25-3.17,3.79-4.3,7.54-.31,1-.49,1.7-.57,2.06a7.77,7.77,0,0,1-.16.94c-.31,1.63-.8,2.43-1.51,2.43-.18,0-.62-.07-.62-.74l.64-3.42c.33-1.73.56-3,.67-3.7s.27-1.52.42-2.39a38,38,0,0,1,.93-3.73.34.34,0,0,1,0-.13v-.14a1.24,1.24,0,0,1,.64-1.16.81.81,0,0,1,.44-.13c.3,0,.81.14.81,1.09a6.81,6.81,0,0,1-.41,1.86c-.1.35-.2.67-.28,1,.17-.27.37-.6.64-1a9.45,9.45,0,0,1,1.58-1.81,3.17,3.17,0,0,1,2.08-.9,2.24,2.24,0,0,1,1.68.59A.89.89,0,0,1,102.68,79.21Z"/><path class="cls-1" d="M90.46,91.45c0,.49-.33.89-1,1.22a3.54,3.54,0,0,1-1.36.45c-.55,0-1.21-.31-1.21-1.78a2.79,2.79,0,0,1,.15-.79,8.6,8.6,0,0,0,.27-1.07c.11-.47.24-1.11.42-1.92s.37-1.63.57-2.5.42-1.9.69-3.14c.34-1.54.4-1.88.4-1.93v-.28a4.67,4.67,0,0,0-.2-.88v-.06a1.13,1.13,0,0,1,.29-.78.92.92,0,0,1,.75-.36.84.84,0,0,1,.76.54,2.24,2.24,0,0,1,.26,1A56.17,56.17,0,0,1,90,85.42c-1.13,4.82-1.32,5.74-1.32,5.87a.1.1,0,0,0,0,.07s.13,0,.38-.29a1.14,1.14,0,0,1,.75-.41C90,90.66,90.46,90.73,90.46,91.45Z"/><path class="cls-1" d="M76.27,81a15.33,15.33,0,0,1-.36,2.84l-.47,2.39a38.35,38.35,0,0,0-.79,4.66l0,1.07a1,1,0,0,1-.31.76,1.16,1.16,0,0,1-.8.27.84.84,0,0,1-.78-.38,1.08,1.08,0,0,1-.24-.67,3.07,3.07,0,0,1,0-.53l1.66-9.22a5.83,5.83,0,0,0,.07-1c0-1.2-.42-1.2-.56-1.2-.62,0-1.8.76-3.9,4.37a24.72,24.72,0,0,0-1.78,3.48c-.22.65-.44,1.41-.66,2.24a9.15,9.15,0,0,0-.31,1.56l0,.49c0,.42-.24.89-1.3.89a.65.65,0,0,1-.71-.71c0-.2.28-1.81,2.79-13.26,1.38-6.48,2.26-10.9,2.64-13.19l.11-.4a.74.74,0,0,1,.73-.58,1.12,1.12,0,0,1,1.13.89v.09c-.07.37-.18.85-.31,1.49s-.27,1.34-.44,2.15l-.54,2.61c-.21.93-.39,1.89-.61,2.85l-.92,4.42c-.26,1.23-.5,2.33-.71,3.31,1.71-3.08,3.33-4.58,4.91-4.58a1.94,1.94,0,0,1,1.77.94A3.46,3.46,0,0,1,76.27,81Z"/><path class="cls-1" d="M65.56,79a.87.87,0,0,1-.78.87,6,6,0,0,1-1.27.08c-.57,0-1.19,0-1.84-.06-.2,1-.59,2.65-1.15,5a29.2,29.2,0,0,0-.91,4.86A2.5,2.5,0,0,0,59.83,91a.53.53,0,0,0,.42.12.9.9,0,0,0,.6-.19,6.32,6.32,0,0,0,.53-.51,4,4,0,0,1,.51-.56.91.91,0,0,1,.69-.33.73.73,0,0,1,.8.8,2,2,0,0,1-.62,1.1,7.42,7.42,0,0,1-1.11,1.09,2.77,2.77,0,0,1-1.57.4,2.18,2.18,0,0,1-1.44-.38,2.86,2.86,0,0,1-.8-2.21A11.31,11.31,0,0,1,58,88.63L58.28,87c.18-.82.35-1.53.49-2.12s.26-1.11.35-1.56.23-1,.42-1.78.27-1.25.38-1.81a12,12,0,0,0-1.75.15h-.05c-.68-.08-.79-.47-.79-.71a1.11,1.11,0,0,1,.26-.67,1.07,1.07,0,0,1,.71-.38l1.91,0c0-.16.06-.32.07-.5s.13-.69.24-1.22A6.93,6.93,0,0,1,61,75c.23-.51.54-.78.94-.78a.65.65,0,0,1,.69.74v.18c-.25,1.11-.45,2.1-.63,3h1.78a2.77,2.77,0,0,1,1.46.22A.72.72,0,0,1,65.56,79Z"/><path class="cls-1" d="M92.66,74.32c0,1.14-.56,1.48-1,1.57a2.55,2.55,0,0,1-.56,0,1,1,0,0,1-.73-.34,1.18,1.18,0,0,1-.34-.87,1.36,1.36,0,0,1,.51-1,1.61,1.61,0,0,1,1.09-.45A1,1,0,0,1,92.66,74.32Z"/><path class="cls-1" d="M34.82,78a4.66,4.66,0,0,0-3.46,1.69,11.63,11.63,0,0,0-2.42,4.11,15.28,15.28,0,0,0-.89,5.09,5.77,5.77,0,0,0,.73,2.81,2.59,2.59,0,0,0,2.45,1.37,3.33,3.33,0,0,0,1.84-.58A8.35,8.35,0,0,0,36,89a15.67,15.67,0,0,0,1.73-6.74C37.68,79.44,36.74,78,34.82,78ZM31.45,91.36a1.12,1.12,0,0,1-.65-.18,2.67,2.67,0,0,1-1-2.46A12.84,12.84,0,0,1,31.29,83a7,7,0,0,1,2.22-2.77,2.09,2.09,0,0,1,1.11-.4.88.88,0,0,1,1,.63,6.5,6.5,0,0,1,.16,2,12.48,12.48,0,0,1-.74,3.8,13.79,13.79,0,0,1-1.82,3.73C32.58,90.87,32,91.36,31.45,91.36Z"/><path class="cls-1" d="M198.31,71.16a13.19,13.19,0,0,0-5.35,1,8.93,8.93,0,0,0-3.73,3V71.4h-4.38V96.48h4.57V83.56a8.4,8.4,0,0,1,2.14-6.18,7.91,7.91,0,0,1,5.85-2.15,6.63,6.63,0,0,1,5,1.85,7.64,7.64,0,0,1,1.76,5.49V96.48h4.57V82c0-3.56-.94-6.27-2.83-8.11a10.44,10.44,0,0,0-7.64-2.77ZM177,71.4l-7.51,20.06L162.06,71.4h-3.85l-7.62,20-7.32-20h-4.33l9.37,25.08h4.38l7.37-19,7.28,19h4.38l9.42-25.08ZM124.93,92.79a8.44,8.44,0,0,1-4.35-1.12,8,8,0,0,1-3-3.12,10.07,10.07,0,0,1,0-9.23,7.91,7.91,0,0,1,3-3.1,9.3,9.3,0,0,1,8.7,0,7.71,7.71,0,0,1,3,3.1,10.23,10.23,0,0,1,0,9.23,7.82,7.82,0,0,1-3,3.12,8.44,8.44,0,0,1-4.35,1.12Zm0,4a13.54,13.54,0,0,0,6.73-1.66,12,12,0,0,0,4.66-4.56,13.73,13.73,0,0,0,0-13.2,11.92,11.92,0,0,0-4.66-4.55,13.85,13.85,0,0,0-6.73-1.63,14,14,0,0,0-6.76,1.63,11.84,11.84,0,0,0-4.68,4.55,13.73,13.73,0,0,0,0,13.2,11.93,11.93,0,0,0,4.68,4.56,13.68,13.68,0,0,0,6.76,1.66Z"/></g></g></svg>