<svg xmlns="http://www.w3.org/2000/svg" viewBox="0 0 23 21.12"><defs><style>.cls-1{fill:#996a6a;}</style></defs><g id="Layer_2" data-name="Layer 2"><g id="Layer_1-2" data-name="Layer 1"><rect class="cls-1" x="7" y="9.72" width="16" height="2"/><rect class="cls-1" x="7" y="17.46" width="16" height="2"/><path class="cls-1" d="M.44,19.45a3,3,0,0,0,.52.84,2.63,2.63,0,0,0,.8.6,2.12,2.12,0,0,0,1,.23A2.27,2.27,0,0,0,3.4,21,2.48,2.48,0,0,0,4,20.81a2,2,0,0,0,.52-.37,1.43,1.43,0,0,0,.36-.51l-.69-.38a1.34,1.34,0,0,1-.26.38,1.73,1.73,0,0,1-.35.27,1.56,1.56,0,0,1-.39.15,1.9,1.9,0,0,1-.4,0,1.55,1.55,0,0,1-.68-.16,1.68,1.68,0,0,1-.54-.41,2,2,0,0,1-.35-.6,2.13,2.13,0,0,1-.13-.71,2.24,2.24,0,0,1,.11-.67,1.77,1.77,0,0,1,.32-.59,1.56,1.56,0,0,1,.52-.43,1.54,1.54,0,0,1,.73-.16,1.69,1.69,0,0,1,.38,0,1.38,1.38,0,0,1,.39.13,1.15,1.15,0,0,1,.34.25,1.92,1.92,0,0,1,.27.39l.65-.43a2,2,0,0,0-.77-.8,2.29,2.29,0,0,0-1.23-.31,2.51,2.51,0,0,0-1.08.22,2.64,2.64,0,0,0-.8.59,2.38,2.38,0,0,0-.5.82,2.67,2.67,0,0,0-.17.92,2.72,2.72,0,0,0,.18,1"/><path class="cls-1" d="M3.16,8.66a.59.59,0,0,1,.48.22.77.77,0,0,1,.2.54.73.73,0,0,1-.06.3,1,1,0,0,1-.15.24,1.14,1.14,0,0,1-.23.15.72.72,0,0,1-.29.06H1.58V8.66ZM4,11.91a.81.81,0,0,1-.17.24.7.7,0,0,1-.24.17.77.77,0,0,1-.3.06H1.58V10.82H3.32a.72.72,0,0,1,.29.06.62.62,0,0,1,.22.17,1.1,1.1,0,0,1,.15.26.73.73,0,0,1,.06.3.8.8,0,0,1-.06.3m.65-1a1.32,1.32,0,0,0-.72-.47A1.22,1.22,0,0,0,4.47,10a1.35,1.35,0,0,0,.2-.7,1.27,1.27,0,0,0-.09-.47,1.44,1.44,0,0,0-.24-.42A1.26,1.26,0,0,0,4,8.08,1,1,0,0,0,3.47,8H.76v5.12H3.27A2.18,2.18,0,0,0,3.9,13a1.75,1.75,0,0,0,.51-.26,1.29,1.29,0,0,0,.35-.42,1.09,1.09,0,0,0,.13-.55,1.35,1.35,0,0,0-.26-.83"/><path class="cls-1" d="M2.45.93,3.3,3.12H1.58ZM2.09,0,0,5.11H.88l.55-1.39h2L4,5.11h.88L2.81,0Z"/><rect class="cls-1" x="7" y="1.98" width="16" height="2"/></g></g></svg>